<svg xmlns="http://www.w3.org/2000/svg" width="1280" height="720" viewBox="0 0 1280 720">
  <rect width="1280" height="720" fill="#eef6fc"/>
  <text x="640" y="95" text-anchor="middle" font-family="Arial, sans-serif" font-size="34" font-weight="700" fill="#0f3b5f">Casos practicos de uso</text>
  <rect x="90" y="150" width="330" height="450" rx="22" fill="#ffffff"/>
  <rect x="475" y="150" width="330" height="450" rx="22" fill="#ffffff"/>
  <rect x="860" y="150" width="330" height="450" rx="22" fill="#ffffff"/>
  <text x="255" y="220" text-anchor="middle" font-family="Arial, sans-serif" font-size="30" font-weight="700" fill="#0077cc">LAN</text>
  <text x="255" y="270" text-anchor="middle" font-family="Arial, sans-serif" font-size="22" fill="#334155">Sala de informatica</text>
  <rect x="165" y="315" width="180" height="110" rx="12" fill="#d8ecff"/>
  <circle cx="200" cy="455" r="16" fill="#0077cc"/>
  <circle cx="255" cy="455" r="16" fill="#0077cc"/>
  <circle cx="310" cy="455" r="16" fill="#0077cc"/>
  <text x="255" y="520" text-anchor="middle" font-family="Arial, sans-serif" font-size="20" fill="#64748b">Equipos cercanos y rapidos</text>
  <text x="640" y="220" text-anchor="middle" font-family="Arial, sans-serif" font-size="30" font-weight="700" fill="#12a4ff">MAN</text>
  <text x="640" y="270" text-anchor="middle" font-family="Arial, sans-serif" font-size="22" fill="#334155">Sedes universitarias</text>
  <rect x="550" y="315" width="180" height="110" rx="12" fill="#dff7ec"/>
  <line x1="580" y1="455" x2="700" y2="455" stroke="#12a4ff" stroke-width="8"/>
  <circle cx="580" cy="455" r="16" fill="#12a4ff"/>
  <circle cx="700" cy="455" r="16" fill="#12a4ff"/>
  <text x="640" y="520" text-anchor="middle" font-family="Arial, sans-serif" font-size="20" fill="#64748b">Conexion urbana centralizada</text>
  <text x="1025" y="220" text-anchor="middle" font-family="Arial, sans-serif" font-size="30" font-weight="700" fill="#2ecc71">WAN</text>
  <text x="1025" y="270" text-anchor="middle" font-family="Arial, sans-serif" font-size="22" fill="#334155">Empresa global</text>
  <circle cx="955" cy="370" r="34" fill="#2ecc71"/>
  <circle cx="1095" cy="330" r="34" fill="#2ecc71"/>
  <circle cx="1080" cy="455" r="34" fill="#2ecc71"/>
  <line x1="955" y1="370" x2="1095" y2="330" stroke="#2ecc71" stroke-width="8"/>
  <line x1="1095" y1="330" x2="1080" y2="455" stroke="#2ecc71" stroke-width="8"/>
  <line x1="955" y1="370" x2="1080" y2="455" stroke="#2ecc71" stroke-width="8"/>
  <text x="1025" y="520" text-anchor="middle" font-family="Arial, sans-serif" font-size="20" fill="#64748b">Cobertura nacional e internacional</text>
</svg>
